#!OML:ASF F:\VICON\USERDATA\INSTALL\rory3\rory3.ASF
:FULLY-SPECIFIED
:DEGREES
113
root -0.09645447294944876 20.42142454136338 -11.818683915776246 8.289010293651 0.18000611653659293 -0.27296264309332574
lfemur -29.46103414841839 5.221863116103622 -17.888310471315503
ltibia 49.19215849392821
lfoot 0.7661741067228576 3.85871650817418
ltoes 13.121208374724127
rfemur -35.720937955694595 -6.16446276531548 21.315340267966786
rtibia 61.49205495302325
rfoot 0.057914486049101654 -3.347534066033967
rtoes 25.286376263895527
lowerback 3.8168799837120817 0.031842309324813856 -1.7379049411358833
upperback 9.960782431958519 0.040573712525179884 1.1603973846798605
thorax 5.196403086533846 -0.09630391724769743 1.798987653263752
lowerneck -10.277648290689 -3.5474492673008173 -2.211578988946267
upperneck 31.83724069373863 -4.5816700034151925 1.4068401670576547
head 11.599839639784808 -2.4675551635618893 1.2478160677381664
lclavicle -1.2469162104171392e-17 -8.167485933425205e-16
lhumerus -21.39260319425721 -17.637036664763915 89.81364407610074
lradius 24.29769321853067
lwrist 17.390652888838854
lhand -27.55441084694307 -7.164762016869808
lfingers 7.125019999999999
lthumb -1.3543722691688411 23.11788174390614
rclavicle -1.1858890256741463e-17 -8.162364565400592e-16
rhumerus -21.15806551645663 3.6158294871229275 -84.65798754246354
rradius 36.808144399037346
rwrist 21.172697507856135
rhand -18.374239911330115 -25.562122525965165
rfingers 7.125019999999999
rthumb 8.186065633537577 -55.76647545297726
114
root -0.09485101183079403 20.191573282432316 -11.736918151975646 9.09731950487356 0.04696274429350189 -0.3084641211329262
lfemur -32.188423827888016 5.603678683753284 -18.556255442334066
ltibia 43.50349983578159
lfoot -0.629940284627132 3.652609072485643
ltoes 11.33934015876022
rfemur -41.6056910930331 -6.224674520823295 21.94849968553973
rtibia 62.9260969576856
rfoot -2.7733796485400823 -2.952619208231324
rtoes 20.810264454082162
lowerback 4.032604417458675 -0.13512975979365716 -1.9953399216719392
upperback 9.418898602952543 -0.16146717696513851 1.103558690697344
thorax 5.367220761087372 -0.20902106670067697 1.8172648885291547
lowerneck -10.414151091263689 -3.155277706105869 -2.141113751896319
upperneck 31.444219200524365 -4.140575353350536 1.4698879442515216
head 11.696586916478523 -2.2184002040958473 1.2133884081121633
lclavicle -1.2711833399800601e-17 -8.170657166608312e-16
lhumerus -21.14681903371633 -15.37849964506963 89.79109907363107
lradius 24.267255086982182
lwrist 16.697408820428016
lhand -26.5228151513845 -6.906873923409938
lfingers 7.125019999999999
lthumb -0.24389005824378174 23.349741265735595
rclavicle -1.2179055307692841e-17 -8.16658049628911e-16
rhumerus -20.20448612693946 4.331767459171518 -85.92854452708413
rradius 37.4545964602137
rwrist 21.318911754963416
rhand -18.271313421935258 -25.72020730046279
rfingers 7.125019999999999
rthumb 8.190482340226348 -55.92183841603246
115
root -0.09995087323312368 19.686965102289175 -11.598480350179319 9.412964889725297 0.16482690010333756 -0.3051078035303746
lfemur -34.26784876581196 6.003088930801447 -19.210936918598424
ltibia 34.78270425251667
lfoot -1.2957307922419847 3.2125221852989965
ltoes 7.958083053771674
rfemur -45.15324391235494 -6.34425193396189 22.173268264195883
rtibia 59.276451725425865
rfoot -4.990153173177731 -2.5693416334651777
rtoes 15.859299073602331
lowerback 4.88740430282965 -0.22862099583859044 -2.093905044096542
upperback 8.90973301513585 -0.2757439003909513 1.0684166928139742
thorax 5.207400871237457 -0.27115050488599685 1.83298528464325
lowerneck -10.743205356621445 -3.116180087976208 -2.336819682145165
upperneck 31.513370038589617 -4.096425721106063 1.6289758101718332
head 11.956768824001427 -2.186548311169562 1.2262993322587503
lclavicle -1.2977683101114815e-17 -8.174274918509526e-16
lhumerus -20.803560381101178 -12.71154227552233 89.42794864844515
lradius 23.739812612502554
lwrist 15.616392935939311
lhand -25.13579070460825 -6.501301268929145
lfingers 7.125019999999999
lthumb 1.0408104553587068 23.677472972187257
rclavicle -1.2185437724646737e-17 -8.166667105375066e-16
rhumerus -19.675233977586146 4.713360427127002 -86.81301297524183
rradius 37.61341869168093
rwrist 21.64357546290951
rhand -18.26609465662477 -25.940471279653536
rfingers 7.125019999999999
rthumb 8.078731130066172 -56.10481493389371
116
root -0.1073515945848339 18.883726271058077 -11.372570179804825 7.856328263843391 0.4608954986382894 -0.2907522159958271
lfemur -34.700296405649354 6.314792591804335 -19.66056651765174
ltibia 28.835183364842173
lfoot -2.599999754915924 3.2134888914512585
ltoes 2.300969803668373
rfemur -44.2347327687935 -6.231437079646896 21.692758036925508
rtibia 53.00691760852507
rfoot -6.757071870324995 -2.597817693784352
rtoes 11.910600917436952
lowerback 6.5685354726258565 -0.1900198004687078 -1.9901920201618242
upperback 8.671176558433261 -0.21406640597198268 1.0776450169040985
thorax 4.629249265768862 -0.23089537994423484 1.869926495010837
lowerneck -11.196786236183918 -3.473409743334895 -2.707847969993625
upperneck 32.4087846103745 -4.463541318218715 1.8512143727538044
head 12.393164622347172 -2.3705801262086585 1.2717353103958402
lclavicle -1.3212158556182462e-17 -8.177713528259625e-16
lhumerus -20.40361267591509 -10.527195565878475 88.82898294417598
lradius 22.82776352282635
lwrist 13.740434202977978
lhand -23.38988063312792 -5.854323538010288
lfingers 7.125019999999999
lthumb 2.5191353611726703 24.133569789258484
rclavicle -1.2254815180846058e-17 -8.167586367154578e-16
rhumerus -19.49902236943528 4.659922340627196 -87.24333724881097
rradius 37.188559378548376
rwrist 22.324909243516046
rhand -18.37734995809094 -26.178580884409904
rfingers 7.125019999999999
rthumb 7.851128894460748 -56.369824449010714
